<svg width="159" height="159" viewBox="0 0 159 159" fill="none" xmlns="http://www.w3.org/2000/svg">
<path d="M158.583 79.2C158.583 118.096 130.511 150.48 93.5513 157.168C88.9753 157.96 84.2234 158.4 79.3833 158.4C77.0954 158.4 74.8073 158.312 72.5193 158.136C62.7513 157.256 53.4233 154.704 44.9753 150.568C37.3194 146.872 30.3673 142.032 24.2953 136.136C9.42335 121.792 0.18335 101.552 0.18335 79.2C0.18335 35.464 35.6474 0 79.3833 0C123.119 0 158.583 35.464 158.583 79.2Z" fill="#EBEDEF"/>
<path d="M88.8513 113.253H81.7593V126.72H88.8513V113.253Z" fill="#6CC199"/>
<path d="M123.036 117.397H115.944V126.72H123.036V117.397Z" fill="#6CC199"/>
<path d="M100.246 106.48H93.1543V126.72H100.246V106.48Z" fill="#6CC199"/>
<path d="M111.641 96.36H104.549V126.72H111.641V96.36Z" fill="#6CC199"/>
<mask id="mask0_11931_10846" style="mask-type:alpha" maskUnits="userSpaceOnUse" x="0" y="0" width="159" height="159">
<path d="M158.583 79.2C158.583 118.096 130.511 150.48 93.5513 157.168C88.9753 157.96 84.2234 158.4 79.3833 158.4C77.0954 158.4 74.8073 158.312 72.5193 158.136C62.7513 157.256 53.4233 154.704 44.9753 150.568C37.3194 146.872 30.3673 142.032 24.2953 136.136C9.42335 121.792 0.18335 101.552 0.18335 79.2C0.18335 35.464 35.6474 0 79.3833 0C123.119 0 158.583 35.464 158.583 79.2Z" fill="#EBEDEF"/>
</mask>
<g mask="url(#mask0_11931_10846)">
<path d="M43.2153 151.888C35.3833 148.104 28.2553 143.088 22.0953 137.192C28.1673 131.384 46.5593 112.112 52.2793 83.864L75.7753 83.512C75.7753 83.424 79.1193 113.256 43.2153 151.888Z" fill="#008DD1"/>
<path d="M99.7993 160.776C95.1353 161.656 83.3433 159.896 78.4153 159.896C76.0393 159.896 75.0713 159.808 72.6953 159.632C72.0793 158.664 33.5353 123.552 38.1993 104.632C41.3673 91.784 49.7273 88.528 49.5513 83.512C49.2873 78.496 74.8073 83.512 74.8073 83.512L67.0633 101.288C66.9753 101.288 98.2153 136.928 99.7993 160.776Z" fill="#008DD1"/>
<path fill-rule="evenodd" clip-rule="evenodd" d="M40.5721 118.926C40.794 118.827 41.0541 118.927 41.1531 119.149C43.6835 124.82 47.7058 130.683 52.0106 136.218C52.1598 136.41 52.1253 136.686 51.9335 136.835C51.7416 136.985 51.4652 136.95 51.316 136.758C46.9969 131.205 42.9232 125.276 40.3495 119.507C40.2505 119.285 40.3501 119.025 40.5721 118.926Z" fill="#13181B"/>
<path d="M114.847 65.824C118.191 61.688 120.303 59.84 123.207 60.368C129.455 61.16 127.519 67.848 125.759 69.08C125.055 69.608 123.823 69.52 123.999 68.552C123.999 68.376 120.655 70.136 119.687 70.576C116.783 71.984 104.375 84.92 92.5834 84.656C86.7754 84.568 76.8314 73.128 76.8314 73.128L82.5514 51.656C82.5514 51.656 93.4634 69.344 96.8074 70.576C100.943 71.984 114.847 65.824 114.847 65.824Z" fill="#40A4ED"/>
<path d="M38.7274 49.1042L44.0074 56.7602C48.7594 63.0962 50.7834 71.1042 49.2874 78.9362C48.4074 83.4242 46.9994 87.6482 45.2394 91.0802L74.1034 99.0002L82.5514 70.4882C83.1674 67.8482 83.0794 65.1202 82.1994 62.6562L81.6714 61.1602L86.5994 56.7602C86.5994 56.7602 78.5914 37.4882 59.8474 38.1922C59.1434 38.7202 48.9354 40.3042 38.7274 49.1042Z" fill="white"/>
<path fill-rule="evenodd" clip-rule="evenodd" d="M121.016 61.2498C121.064 61.0115 121.295 60.857 121.534 60.9046C122.875 61.1728 124.034 61.5597 124.792 62.029C125.167 62.2613 125.491 62.5419 125.663 62.8814C125.853 63.2548 125.84 63.6625 125.603 64.0363L125.601 64.038C125.316 64.4818 124.895 64.6676 124.47 64.7096C124.066 64.7494 123.647 64.6623 123.298 64.5649C123.12 64.5152 122.948 64.4594 122.797 64.4098C122.788 64.4067 122.778 64.4036 122.769 64.4005C122.626 64.3535 122.506 64.3144 122.404 64.286C122.393 64.283 122.383 64.2802 122.373 64.2776C121.438 66.2583 119.4 66.8801 118.191 66.8801C117.948 66.8801 117.751 66.6831 117.751 66.4401C117.751 66.1971 117.948 66.0001 118.191 66.0001C119.226 66.0001 120.954 65.4365 121.656 63.7226C121.777 63.4215 122.066 63.3708 122.211 63.3686C122.357 63.3663 122.513 63.403 122.639 63.4379C122.762 63.4721 122.901 63.5176 123.037 63.5623C123.048 63.5661 123.06 63.5699 123.071 63.5736C123.223 63.6234 123.377 63.6734 123.534 63.7172C123.856 63.8069 124.147 63.8572 124.384 63.8338C124.599 63.8126 124.75 63.7346 124.861 63.563C124.93 63.4533 124.928 63.3771 124.879 63.2805C124.813 63.1497 124.646 62.9739 124.329 62.7772C123.701 62.3885 122.66 62.0273 121.361 61.7675C121.123 61.7199 120.968 61.4881 121.016 61.2498Z" fill="#13181B"/>
<path fill-rule="evenodd" clip-rule="evenodd" d="M124.077 64.1386C124.23 64.3272 124.201 64.6043 124.013 64.7576C123.414 65.2439 123.221 65.8737 123.26 66.288C123.281 66.4988 123.354 66.6067 123.404 66.6465C123.432 66.6692 123.498 66.7099 123.665 66.6454C123.842 66.5777 124.041 66.6298 124.162 66.7749C124.282 66.9201 124.297 67.126 124.198 67.2867C123.91 67.7552 123.916 68.1587 124.022 68.4198C124.132 68.6903 124.34 68.8161 124.527 68.8161C124.77 68.8161 124.967 69.0131 124.967 69.2561C124.967 69.4991 124.77 69.6961 124.527 69.6961C123.922 69.6961 123.427 69.2939 123.207 68.7504C123.057 68.3813 123.03 67.9482 123.152 67.5001C123.046 67.4627 122.946 67.4074 122.854 67.3337C122.56 67.0985 122.419 66.7334 122.384 66.3722C122.314 65.6425 122.648 64.7323 123.458 64.0746C123.647 63.9214 123.924 63.95 124.077 64.1386Z" fill="#13181B"/>
<path d="M63.7193 25.6082C63.6313 37.1362 59.7593 38.1922 59.7593 38.1922C59.7593 38.1922 62.3113 42.3281 69.9674 46.7281C70.7594 47.1681 71.8154 46.6402 71.9034 45.6722L72.7834 32.2962L63.7193 25.6082Z" fill="#40A4ED"/>
<path d="M73.8393 36.256C76.0393 36.608 78.4153 34.232 79.3833 28.512C81.3193 16.984 74.9833 12.32 67.2393 15.048C61.1674 17.248 62.8394 34.584 73.8393 36.256Z" fill="#40A4ED"/>
<path d="M78.9434 25.52L79.9399 28.4265C80.1116 28.9274 79.8053 29.4654 79.2869 29.5734L77.6234 29.92" fill="#40A4ED"/>
<path fill-rule="evenodd" clip-rule="evenodd" d="M78.8007 25.1037C79.0305 25.0249 79.2808 25.1474 79.3596 25.3773L80.3561 28.2838C80.6137 29.0351 80.1543 29.8421 79.3767 30.0041L77.7131 30.3507C77.4752 30.4003 77.2422 30.2476 77.1926 30.0097C77.1431 29.7718 77.2957 29.5388 77.5336 29.4892L79.1972 29.1426C79.4564 29.0886 79.6095 28.8196 79.5237 28.5692L78.5272 25.6627C78.4483 25.4328 78.5708 25.1826 78.8007 25.1037Z" fill="#13181B"/>
<path fill-rule="evenodd" clip-rule="evenodd" d="M75.5817 24.7141C75.178 24.3777 74.7166 24.3065 74.2242 24.4472C73.7093 24.5943 73.1917 24.9663 72.9014 25.4744C72.7808 25.6854 72.512 25.7587 72.3011 25.6381C72.0901 25.5176 72.0168 25.2488 72.1373 25.0378C72.551 24.3139 73.2654 23.8059 73.9825 23.601C74.7221 23.3897 75.4927 23.4945 76.145 24.0381C76.3317 24.1937 76.3569 24.4711 76.2014 24.6578C76.0458 24.8445 75.7684 24.8697 75.5817 24.7141Z" fill="#13181B"/>
<path d="M75.4234 25.8721C75.8608 25.8721 76.2154 25.5175 76.2154 25.0801C76.2154 24.6427 75.8608 24.2881 75.4234 24.2881C74.9859 24.2881 74.6313 24.6427 74.6313 25.0801C74.6313 25.5175 74.9859 25.8721 75.4234 25.8721Z" fill="#13181B"/>
<path fill-rule="evenodd" clip-rule="evenodd" d="M75.4233 24.7281C75.2289 24.7281 75.0713 24.8857 75.0713 25.0801C75.0713 25.2745 75.2289 25.4321 75.4233 25.4321C75.6178 25.4321 75.7753 25.2745 75.7753 25.0801C75.7753 24.8857 75.6178 24.7281 75.4233 24.7281ZM74.1913 25.0801C74.1913 24.3997 74.7429 23.8481 75.4233 23.8481C76.1038 23.8481 76.6553 24.3997 76.6553 25.0801C76.6553 25.7606 76.1038 26.3121 75.4233 26.3121C74.7429 26.3121 74.1913 25.7606 74.1913 25.0801Z" fill="#13181B"/>
<path fill-rule="evenodd" clip-rule="evenodd" d="M73.5607 30.8995C73.7488 30.7456 74.026 30.7734 74.1799 30.9614C74.8492 31.7795 76.0551 32.0826 77.0254 31.7094C77.2522 31.6222 77.5068 31.7353 77.594 31.9621C77.6813 32.1889 77.5681 32.4435 77.3413 32.5307C76.0236 33.0375 74.4135 32.6366 73.4988 31.5187C73.3449 31.3306 73.3727 31.0534 73.5607 30.8995Z" fill="#13181B"/>
<path d="M59.7594 35.904C62.5783 35.904 64.8634 33.6189 64.8634 30.8C64.8634 27.9812 62.5783 25.696 59.7594 25.696C56.9405 25.696 54.6554 27.9812 54.6554 30.8C54.6554 33.6189 56.9405 35.904 59.7594 35.904Z" fill="#13181B"/>
<path d="M67.4153 25.1681C68.9993 20.9441 75.3353 19.6241 77.6233 19.4481C79.1193 19.3601 80.6153 18.7441 81.4073 17.5121C82.1993 16.2801 81.8473 14.3441 80.4393 13.8161C80.7913 14.6961 79.9993 15.7521 79.1193 15.6641C78.2393 15.5761 77.6233 14.4321 78.0633 13.6401C78.2393 13.3761 78.5913 13.1121 78.6793 12.7601C79.0313 11.9681 78.2393 11.1761 77.5353 10.6481C76.7433 10.1201 75.7753 9.59205 74.8953 9.94405C73.9273 10.2961 73.4873 11.5281 72.4313 11.7041C71.6393 11.8801 70.9353 11.4401 70.2313 11.0881C67.2393 9.59205 63.2793 10.2081 60.7273 12.4081C58.1753 14.6081 56.8553 18.9201 57.2073 22.2641C57.6473 26.1361 60.0233 29.2161 63.0153 30.8001C63.1913 30.8881 66.6233 27.2801 67.4153 25.1681Z" fill="#13181B"/>
<path d="M67.1733 29.0941C68.2709 28.2897 68.3689 26.5571 67.3922 25.2243C66.4154 23.8914 64.7338 23.463 63.6361 24.2674C62.5385 25.0718 62.4405 26.8044 63.4173 28.1372C64.394 29.4701 66.0756 29.8985 67.1733 29.0941Z" fill="#40A4ED"/>
<path fill-rule="evenodd" clip-rule="evenodd" d="M64.1611 25.5684C64.1831 25.3264 64.3972 25.148 64.6392 25.17C65.854 25.2805 66.8191 26.4669 66.7095 27.6721C66.6875 27.9141 66.4735 28.0924 66.2315 28.0704C65.9895 28.0484 65.8111 27.8344 65.8331 27.5924C65.8996 26.8616 65.2807 26.112 64.5595 26.0464C64.3175 26.0244 64.1391 25.8104 64.1611 25.5684Z" fill="#13181B"/>
<path d="M76.1274 29.04C76.1274 29.04 72.6954 29.92 72.3434 32.824L76.1274 29.04Z" fill="#13181B"/>
<path d="M20.5994 101.024C20.1594 96.5361 19.6314 79.288 22.0074 69.696C24.3834 60.456 38.9034 49.4561 38.9034 49.4561L50.4314 61.5121C50.4314 61.5121 36.1754 71.0161 34.2394 75.328C31.8634 80.432 27.4634 100.584 27.4634 100.584L20.5994 101.024Z" fill="#40A4ED"/>
<path d="M27.7274 100.056C27.7274 100.848 27.7274 101.64 27.6394 102.432C27.6394 102.608 27.6394 102.784 27.7274 102.96C27.8154 103.136 27.9034 103.312 27.9914 103.488C28.6954 104.544 29.3994 105.6 29.9274 106.656C30.0154 106.92 30.1914 107.096 30.1914 107.36C30.1914 107.536 30.1034 107.8 30.0154 107.976C29.6634 108.592 29.2234 109.12 28.6954 109.648C28.9594 110.88 29.1354 112.112 29.2234 113.344C29.2234 113.52 29.2234 113.608 29.1354 113.784C29.0474 113.872 28.9594 113.96 28.7834 114.048C27.9914 114.312 27.1114 114.048 26.5834 113.432C26.3194 114.048 25.6154 114.224 24.9994 114.048C24.3834 113.872 23.9434 113.432 23.5034 112.992C23.5034 113.432 22.8874 113.696 22.4474 113.52C22.0074 113.344 21.7434 112.904 21.4794 112.552C21.3914 112.464 21.3034 112.376 21.2154 112.288C21.1274 112.288 20.9514 112.376 20.8634 112.376C20.3354 112.464 19.9834 111.848 19.8954 111.408C18.9274 108.064 19.4554 104.544 20.3354 101.2L27.7274 100.056Z" fill="#40A4ED"/>
<path d="M20.3354 103.312L23.1514 103.488C24.1194 103.576 24.9114 102.784 24.9994 101.816L25.3514 96.6241C25.4394 95.6561 24.6474 94.8641 23.6794 94.7761L20.8634 94.6001C19.8954 94.5121 19.1034 95.3041 19.0154 96.2721L18.6634 101.464C18.5754 102.432 19.3674 103.312 20.3354 103.312Z" fill="#13181B"/>
<path d="M23.2394 101.816L27.8154 102.08C28.2554 102.08 28.6954 101.728 28.6954 101.288L28.9594 97.768C28.9594 97.328 28.6074 96.888 28.1674 96.888L23.5914 96.624C23.1514 96.624 22.7114 96.976 22.7114 97.416L22.4474 100.936C22.4474 101.376 22.7994 101.816 23.2394 101.816Z" fill="#13181B"/>
</g>
<path d="M102.683 49.4268C102.683 49.4268 103.965 47.5201 105.543 47.5201C105.92 47.5172 106.294 47.5941 106.644 47.7461C106.993 47.8981 107.311 48.1224 107.579 48.4059C107.846 48.6895 108.059 49.0268 108.204 49.3983C108.349 49.7698 108.423 50.1683 108.423 50.5707C108.423 53.6214 105.563 54.0027 102.703 58.96C99.8434 54.0027 96.9833 53.6214 96.9833 50.5707C96.9833 49.7617 97.2847 48.9857 97.821 48.4136C98.3574 47.8415 99.0849 47.5201 99.8434 47.5201C101.402 47.5201 102.683 49.4268 102.683 49.4268Z" fill="#005984"/>
<path fill-rule="evenodd" clip-rule="evenodd" d="M143.935 23.8898C144.107 24.0622 144.106 24.3408 143.934 24.5121L129.414 38.9441C129.327 39.03 129.209 39.0762 129.087 39.0717C128.965 39.0672 128.851 39.0123 128.771 38.9202L124.494 33.9859L114.972 42.913C114.795 43.0792 114.517 43.0702 114.35 42.8929C114.184 42.7157 114.193 42.4372 114.37 42.271L124.226 33.031C124.314 32.9492 124.431 32.9064 124.55 32.9126C124.67 32.9188 124.781 32.9734 124.86 33.0638L129.127 37.9878L143.313 23.8879C143.486 23.7166 143.764 23.7175 143.935 23.8898Z" fill="#13181B"/>
</svg>
